<?xml version="1.0" standalone="no"?>
<!DOCTYPE svg PUBLIC "-//W3C//DTD SVG 20010904//EN"
 "http://www.w3.org/TR/2001/REC-SVG-20010904/DTD/svg10.dtd">
<svg version="1.0" xmlns="http://www.w3.org/2000/svg"
 width="1042.000000pt" height="1042.000000pt" viewBox="0 0 1042.000000 1042.000000"
 preserveAspectRatio="xMidYMid meet">
<metadata>
Created by potrace 1.11, written by Peter Selinger 2001-2013
</metadata>
<g transform="translate(0.000000,1042.000000) scale(0.100000,-0.100000)"
fill="#000000" stroke="none">
<path d="M4870 10389 c-772 -49 -1567 -289 -2236 -675 -1377 -794 -2317 -2176
-2544 -3741 -16 -115 -50 -441 -50 -490 0 -10 207 -13 1003 -13 l1004 0 7
-277 c3 -153 13 -339 22 -413 56 -496 223 -958 498 -1375 741 -1124 2094
-1652 3404 -1329 1133 279 2034 1191 2302 2329 64 270 80 429 80 783 l0 282
1010 0 1011 0 -5 58 c-3 31 -11 113 -16 182 -79 922 -443 1863 -1016 2625
-420 559 -959 1035 -1569 1385 -164 95 -489 250 -675 323 -698 275 -1467 394
-2230 346z"/>
<path d="M45 4878 c57 -748 221 -1354 536 -1988 245 -492 542 -910 928 -1304
603 -615 1286 -1041 2094 -1307 966 -318 2062 -337 3042 -54 700 203 1320 535
1900 1016 146 122 439 413 581 578 645 748 1065 1666 1203 2631 17 118 51 447
51 498 0 9 -160 12 -768 12 l-768 0 -18 -177 c-84 -865 -448 -1643 -1051
-2248 -596 -598 -1324 -950 -2177 -1051 -174 -21 -561 -24 -728 -5 -731 80
-1363 338 -1913 780 -762 613 -1243 1492 -1352 2471 -8 74 -15 156 -15 183 l0
47 -776 0 -775 0 6 -82z"/>
</g>
</svg>
